<svg xmlns="http://www.w3.org/2000/svg" xmlns:xlink="http://www.w3.org/1999/xlink" width="2998" zoomAndPan="magnify" viewBox="0 0 2248.5 704.249983" height="939" preserveAspectRatio="xMidYMid meet" version="1.0"><defs><g/><clipPath id="c35ea5e1f8"><path d="M 27 124 L 2195 124 L 2195 703.5 L 27 703.5 Z M 27 124 " clip-rule="nonzero"/></clipPath><clipPath id="aa5038f9a6"><rect x="0" width="2168" y="0" height="580"/></clipPath><clipPath id="12c857d1db"><path d="M 1108.867188 655.144531 L 1524.15625 655.144531 L 1524.15625 693.152344 L 1108.867188 693.152344 Z M 1108.867188 655.144531 " clip-rule="nonzero"/></clipPath><clipPath id="bba13d29b8"><path d="M 0.867188 0.144531 L 416.15625 0.144531 L 416.15625 38.152344 L 0.867188 38.152344 Z M 0.867188 0.144531 " clip-rule="nonzero"/></clipPath><clipPath id="f78be8a7b6"><rect x="0" width="417" y="0" height="39"/></clipPath><clipPath id="c0c8c5e655"><path d="M 1342.414062 91 L 1503.363281 91 L 1503.363281 252.578125 L 1342.414062 252.578125 Z M 1342.414062 91 " clip-rule="nonzero"/></clipPath><clipPath id="0ce67b5857"><path d="M 1129.632812 91 L 1291 91 L 1291 252.578125 L 1129.632812 252.578125 Z M 1129.632812 91 " clip-rule="nonzero"/></clipPath><clipPath id="88197434ae"><path d="M 1135 14.382812 L 1498 14.382812 L 1498 207 L 1135 207 Z M 1135 14.382812 " clip-rule="nonzero"/></clipPath></defs><g clip-path="url(#c35ea5e1f8)"><g transform="matrix(1, 0, 0, 1, 27, 124)"><g clip-path="url(#aa5038f9a6)"><g fill="#ff6b35" fill-opacity="1"><g transform="translate(2.381865, 494.672593)"><g><path d="M 429.921875 -305.0625 C 463.816406 -305.0625 489.238281 -295.363281 506.1875 -275.96875 C 523.132812 -256.570312 531.609375 -228.984375 531.609375 -193.203125 L 531.609375 0 L 419.1875 0 L 419.1875 -179.65625 C 419.1875 -192.457031 416.078125 -202.71875 409.859375 -210.4375 C 403.648438 -218.15625 394.894531 -222.015625 383.59375 -222.015625 C 370.40625 -222.015625 359.671875 -217.492188 351.390625 -208.453125 C 343.109375 -199.421875 338.96875 -188.3125 338.96875 -175.125 L 338.96875 0 L 226.546875 0 L 226.546875 -179.65625 C 226.546875 -192.457031 223.4375 -202.71875 217.21875 -210.4375 C 211 -218.15625 202.242188 -222.015625 190.953125 -222.015625 C 177.765625 -222.015625 167.023438 -217.492188 158.734375 -208.453125 C 150.453125 -199.421875 146.3125 -188.3125 146.3125 -175.125 L 146.3125 0 L 33.890625 0 L 33.890625 -298.28125 L 125.984375 -298.28125 L 133.328125 -253.65625 C 144.617188 -269.476562 159.585938 -282 178.234375 -291.21875 C 196.878906 -300.445312 216.5625 -305.0625 237.28125 -305.0625 C 282.09375 -305.0625 312.21875 -287.925781 327.65625 -253.65625 C 339.332031 -269.476562 354.300781 -282 372.5625 -291.21875 C 390.832031 -300.445312 409.953125 -305.0625 429.921875 -305.0625 Z M 429.921875 -305.0625 "/></g></g></g><g fill="#ff6b35" fill-opacity="1"><g transform="translate(540.762824, 494.672593)"><g><path d="M 188.125 -305.0625 C 242.738281 -305.0625 284.445312 -292.253906 313.25 -266.640625 C 342.0625 -241.035156 356.46875 -201.867188 356.46875 -149.140625 L 356.46875 -129.9375 L 132.765625 -129.9375 C 132.765625 -108.46875 137.566406 -92.269531 147.171875 -81.34375 C 156.773438 -70.425781 171.929688 -64.96875 192.640625 -64.96875 C 211.472656 -64.96875 225.3125 -68.921875 234.15625 -76.828125 C 243.007812 -84.734375 247.4375 -95.28125 247.4375 -108.46875 L 356.46875 -108.46875 C 356.46875 -72.3125 342.722656 -44.0625 315.234375 -23.71875 C 287.742188 -3.382812 247.632812 6.78125 194.90625 6.78125 C 139.539062 6.78125 96.601562 -6.117188 66.09375 -31.921875 C 35.59375 -57.722656 20.34375 -96.796875 20.34375 -149.140625 C 20.34375 -200.359375 35.21875 -239.148438 64.96875 -265.515625 C 94.71875 -291.878906 135.769531 -305.0625 188.125 -305.0625 Z M 192.640625 -233.3125 C 157.242188 -233.3125 137.472656 -216.554688 133.328125 -183.046875 L 242.921875 -183.046875 C 242.921875 -198.484375 238.492188 -210.71875 229.640625 -219.75 C 220.796875 -228.789062 208.460938 -233.3125 192.640625 -233.3125 Z M 192.640625 -233.3125 "/></g></g></g><g fill="#ff6b35" fill-opacity="1"><g transform="translate(891.02057, 494.672593)"><g><path d="M 37.84375 0 L 37.84375 -409.578125 L 150.265625 -409.578125 L 150.265625 0 Z M 37.84375 0 "/></g></g></g><g fill="#ff6b35" fill-opacity="1"><g transform="translate(1052.590207, 494.672593)"><g><path d="M 235.015625 -395.453125 C 302.054688 -395.453125 353.84375 -378.316406 390.375 -344.046875 C 426.90625 -309.773438 445.171875 -259.875 445.171875 -194.34375 C 445.171875 -128.8125 426.90625 -78.90625 390.375 -44.625 C 353.84375 -10.351562 302.054688 6.78125 235.015625 6.78125 C 167.972656 6.78125 116.28125 -10.257812 79.9375 -44.34375 C 43.59375 -78.425781 25.421875 -128.425781 25.421875 -194.34375 C 25.421875 -260.25 43.59375 -310.242188 79.9375 -344.328125 C 116.28125 -378.410156 167.972656 -395.453125 235.015625 -395.453125 Z M 235.015625 -302.234375 C 208.273438 -302.234375 187.9375 -294.132812 174 -277.9375 C 160.0625 -261.75 153.09375 -239.910156 153.09375 -212.421875 L 153.09375 -176.265625 C 153.09375 -148.765625 160.0625 -126.914062 174 -110.71875 C 187.9375 -94.53125 208.273438 -86.4375 235.015625 -86.4375 C 261.753906 -86.4375 282.1875 -94.53125 296.3125 -110.71875 C 310.4375 -126.914062 317.5 -148.765625 317.5 -176.265625 L 317.5 -212.421875 C 317.5 -239.910156 310.4375 -261.75 296.3125 -277.9375 C 282.1875 -294.132812 261.753906 -302.234375 235.015625 -302.234375 Z M 235.015625 -302.234375 "/></g></g></g><g fill="#ff6b35" fill-opacity="1"><g transform="translate(1496.627114, 494.672593)"><g><path d="M 314.109375 0 L 267.78125 -166.09375 L 265.515625 -166.09375 L 218.625 0 L 109.03125 0 L 0 -298.28125 L 120.890625 -298.28125 L 166.09375 -122.03125 L 170.046875 -122.03125 L 216.9375 -298.28125 L 328.796875 -298.28125 L 373.984375 -122.03125 L 377.9375 -122.03125 L 423.703125 -298.28125 L 533.296875 -298.28125 L 423.703125 0 Z M 314.109375 0 "/></g></g></g><g fill="#ff6b35" fill-opacity="1"><g transform="translate(2003.371735, 494.672593)"><g><path d="M 37.84375 -333.3125 L 37.84375 -409.578125 L 150.265625 -409.578125 L 150.265625 -333.3125 Z M 37.84375 0 L 37.84375 -298.28125 L 150.265625 -298.28125 L 150.265625 0 Z M 37.84375 0 "/></g></g></g></g></g></g><g clip-path="url(#12c857d1db)"><g transform="matrix(1, 0, 0, 1, 1108, 655)"><g clip-path="url(#f78be8a7b6)"><g clip-path="url(#bba13d29b8)"><path fill="#ff6b35" d="M 0.867188 0.144531 L 416.109375 0.144531 L 416.109375 38.152344 L 0.867188 38.152344 Z M 0.867188 0.144531 " fill-opacity="1" fill-rule="nonzero"/></g></g></g></g><path fill="#ff6b35" d="M 1399.71875 123.484375 C 1384.613281 123.484375 1372.371094 135.726562 1372.371094 150.824219 C 1372.371094 165.929688 1384.613281 178.171875 1399.71875 178.171875 C 1414.816406 178.171875 1427.058594 165.929688 1427.058594 150.824219 C 1427.058594 135.726562 1414.816406 123.484375 1399.71875 123.484375 " fill-opacity="1" fill-rule="nonzero"/><g clip-path="url(#c0c8c5e655)"><path fill="#ff6b35" d="M 1423.007812 237.382812 C 1387.015625 237.382812 1357.84375 208.210938 1357.84375 172.226562 C 1357.84375 136.242188 1387.015625 107.070312 1423.007812 107.070312 C 1458.996094 107.070312 1488.167969 136.242188 1488.167969 172.226562 C 1488.167969 208.210938 1458.996094 237.382812 1423.007812 237.382812 Z M 1423.007812 91.875 C 1378.621094 91.875 1342.648438 127.847656 1342.648438 172.226562 C 1342.648438 216.605469 1378.621094 252.578125 1423.007812 252.578125 C 1467.386719 252.578125 1503.363281 216.605469 1503.363281 172.226562 C 1503.363281 127.847656 1467.386719 91.875 1423.007812 91.875 " fill-opacity="1" fill-rule="nonzero"/></g><path fill="#ff6b35" d="M 1233.273438 178.171875 C 1248.382812 178.171875 1260.621094 165.929688 1260.621094 150.824219 C 1260.621094 135.726562 1248.382812 123.484375 1233.273438 123.484375 C 1218.179688 123.484375 1205.9375 135.726562 1205.9375 150.824219 C 1205.9375 165.929688 1218.179688 178.171875 1233.273438 178.171875 " fill-opacity="1" fill-rule="nonzero"/><g clip-path="url(#0ce67b5857)"><path fill="#ff6b35" d="M 1144.828125 172.226562 C 1144.828125 136.242188 1174 107.070312 1209.984375 107.070312 C 1245.96875 107.070312 1275.140625 136.242188 1275.140625 172.226562 C 1275.140625 208.210938 1245.96875 237.382812 1209.984375 237.382812 C 1174 237.382812 1144.828125 208.210938 1144.828125 172.226562 Z M 1290.347656 172.226562 C 1290.347656 127.847656 1254.363281 91.875 1209.984375 91.875 C 1165.605469 91.875 1129.632812 127.847656 1129.632812 172.226562 C 1129.632812 216.605469 1165.605469 252.578125 1209.984375 252.578125 C 1254.363281 252.578125 1290.347656 216.605469 1290.347656 172.226562 " fill-opacity="1" fill-rule="nonzero"/></g><g clip-path="url(#88197434ae)"><path fill="#ff6b35" d="M 1156.390625 91.492188 C 1170.992188 83.128906 1187.894531 78.320312 1205.9375 78.320312 C 1259.910156 78.320312 1303.863281 121.164062 1305.695312 174.691406 L 1316.492188 206.9375 L 1327.296875 174.691406 C 1329.132812 121.164062 1373.085938 78.320312 1427.058594 78.320312 C 1445.097656 78.320312 1462.003906 83.128906 1476.601562 91.492188 C 1478.535156 76.597656 1481.941406 61.878906 1486.667969 47.558594 L 1497.625 14.382812 L 1492.847656 15.269531 C 1451.550781 22.921875 1409.195312 47.117188 1369.589844 33.15625 C 1352.972656 27.304688 1335.113281 24.113281 1316.492188 24.113281 C 1297.882812 24.113281 1280.011719 27.304688 1263.40625 33.15625 C 1223.796875 47.117188 1181.445312 22.921875 1140.148438 15.269531 L 1135.367188 14.382812 L 1146.328125 47.558594 C 1151.050781 61.878906 1154.457031 76.597656 1156.390625 91.492188 " fill-opacity="1" fill-rule="nonzero"/></g></svg>