<svg xmlns="http://www.w3.org/2000/svg" xmlns:xlink="http://www.w3.org/1999/xlink" width="500" zoomAndPan="magnify" viewBox="0 0 375 374.999991" height="500" preserveAspectRatio="xMidYMid meet" version="1.0"><defs><g/><clipPath id="5355d90e6d"><path d="M 138.988281 313.171875 L 236.011719 313.171875 L 236.011719 330.753906 L 138.988281 330.753906 Z M 138.988281 313.171875 " clip-rule="nonzero"/></clipPath><clipPath id="33ba3d1e4a"><path d="M 0.988281 0.171875 L 98.011719 0.171875 L 98.011719 17.753906 L 0.988281 17.753906 Z M 0.988281 0.171875 " clip-rule="nonzero"/></clipPath><clipPath id="30e348ab06"><rect x="0" width="99" y="0" height="18"/></clipPath><clipPath id="aba907b8b1"><path d="M 194.40625 47 L 237.292969 47 L 237.292969 90.183594 L 194.40625 90.183594 Z M 194.40625 47 " clip-rule="nonzero"/></clipPath><clipPath id="cc686e3e0d"><path d="M 137.632812 47 L 180.832031 47 L 180.832031 90.183594 L 137.632812 90.183594 Z M 137.632812 47 " clip-rule="nonzero"/></clipPath><clipPath id="12389f947a"><path d="M 139 26.625 L 236 26.625 L 236 79 L 139 79 Z M 139 26.625 " clip-rule="nonzero"/></clipPath></defs><rect x="-37.5" width="450" fill="#ffffff" y="-37.499999" height="449.999989" fill-opacity="1"/><rect x="-37.5" width="450" fill="#ffffff" y="-37.499999" height="449.999989" fill-opacity="1"/><g fill="#ff6b35" fill-opacity="1"><g transform="translate(125.785782, 307.669733)"><g><path d="M 61.703125 2.03125 C 44.097656 2.03125 30.722656 -3.34375 21.578125 -14.09375 C 12.441406 -24.84375 7.875 -39.953125 7.875 -59.421875 L 7.875 -163.296875 C 7.875 -182.085938 12.441406 -196.265625 21.578125 -205.828125 C 30.722656 -215.390625 44.097656 -220.171875 61.703125 -220.171875 C 79.316406 -220.171875 92.691406 -215.390625 101.828125 -205.828125 C 110.972656 -196.265625 115.546875 -182.085938 115.546875 -163.296875 L 115.546875 -59.421875 C 115.546875 -39.785156 110.972656 -24.632812 101.828125 -13.96875 C 92.691406 -3.300781 79.316406 2.03125 61.703125 2.03125 Z M 61.703125 -38.09375 C 65.597656 -38.09375 68.222656 -39.785156 69.578125 -43.171875 C 70.929688 -46.554688 71.609375 -51.296875 71.609375 -57.390625 L 71.609375 -164.046875 C 71.609375 -168.796875 70.972656 -172.648438 69.703125 -175.609375 C 68.441406 -178.566406 65.863281 -180.046875 61.96875 -180.046875 C 54.6875 -180.046875 51.046875 -174.546875 51.046875 -163.546875 L 51.046875 -57.140625 C 51.046875 -50.878906 51.804688 -46.140625 53.328125 -42.921875 C 54.847656 -39.703125 57.640625 -38.09375 61.703125 -38.09375 Z M 61.703125 -38.09375 "/></g></g></g><g clip-path="url(#5355d90e6d)"><g transform="matrix(1, 0, 0, 1, 138, 313)"><g clip-path="url(#30e348ab06)"><g clip-path="url(#33ba3d1e4a)"><path fill="#ff6b35" d="M 0.988281 0.171875 L 98.039062 0.171875 L 98.039062 17.753906 L 0.988281 17.753906 Z M 0.988281 0.171875 " fill-opacity="1" fill-rule="nonzero"/></g></g></g></g><path fill="#ff6b35" d="M 209.699219 55.738281 C 205.667969 55.738281 202.402344 59.003906 202.402344 63.03125 C 202.402344 67.0625 205.667969 70.328125 209.699219 70.328125 C 213.726562 70.328125 216.992188 67.0625 216.992188 63.03125 C 216.992188 59.003906 213.726562 55.738281 209.699219 55.738281 " fill-opacity="1" fill-rule="nonzero"/><g clip-path="url(#aba907b8b1)"><path fill="#ff6b35" d="M 215.914062 86.128906 C 206.308594 86.128906 198.523438 78.34375 198.523438 68.742188 C 198.523438 59.140625 206.308594 51.355469 215.914062 51.355469 C 225.515625 51.355469 233.296875 59.140625 233.296875 68.742188 C 233.296875 78.34375 225.515625 86.128906 215.914062 86.128906 Z M 215.914062 47.300781 C 204.070312 47.300781 194.46875 56.902344 194.46875 68.742188 C 194.46875 80.582031 204.070312 90.183594 215.914062 90.183594 C 227.753906 90.183594 237.351562 80.582031 237.351562 68.742188 C 237.351562 56.902344 227.753906 47.300781 215.914062 47.300781 " fill-opacity="1" fill-rule="nonzero"/></g><path fill="#ff6b35" d="M 165.289062 70.328125 C 169.316406 70.328125 172.585938 67.0625 172.585938 63.03125 C 172.585938 59.003906 169.316406 55.738281 165.289062 55.738281 C 161.257812 55.738281 157.992188 59.003906 157.992188 63.03125 C 157.992188 67.0625 161.257812 70.328125 165.289062 70.328125 " fill-opacity="1" fill-rule="nonzero"/><g clip-path="url(#cc686e3e0d)"><path fill="#ff6b35" d="M 141.6875 68.742188 C 141.6875 59.140625 149.472656 51.355469 159.074219 51.355469 C 168.675781 51.355469 176.457031 59.140625 176.457031 68.742188 C 176.457031 78.34375 168.675781 86.128906 159.074219 86.128906 C 149.472656 86.128906 141.6875 78.34375 141.6875 68.742188 Z M 180.515625 68.742188 C 180.515625 56.902344 170.914062 47.300781 159.074219 47.300781 C 147.230469 47.300781 137.632812 56.902344 137.632812 68.742188 C 137.632812 80.582031 147.230469 90.183594 159.074219 90.183594 C 170.914062 90.183594 180.515625 80.582031 180.515625 68.742188 " fill-opacity="1" fill-rule="nonzero"/></g><g clip-path="url(#12389f947a)"><path fill="#ff6b35" d="M 144.773438 47.203125 C 148.667969 44.96875 153.179688 43.6875 157.992188 43.6875 C 172.394531 43.6875 184.121094 55.117188 184.609375 69.402344 L 187.492188 78.003906 L 190.375 69.402344 C 190.863281 55.117188 202.589844 43.6875 216.992188 43.6875 C 221.804688 43.6875 226.316406 44.96875 230.210938 47.203125 C 230.726562 43.226562 231.636719 39.300781 232.898438 35.480469 L 235.820312 26.625 L 234.546875 26.863281 C 223.527344 28.90625 212.226562 35.359375 201.660156 31.636719 C 197.226562 30.074219 192.460938 29.222656 187.492188 29.222656 C 182.527344 29.222656 177.757812 30.074219 173.328125 31.636719 C 162.757812 35.359375 151.457031 28.90625 140.4375 26.863281 L 139.164062 26.625 L 142.089844 35.480469 C 143.347656 39.300781 144.257812 43.226562 144.773438 47.203125 " fill-opacity="1" fill-rule="nonzero"/></g></svg>